<?xml version="1.0" encoding="UTF-8"?>
<svg id="Ebene_2" data-name="Ebene 2" xmlns="http://www.w3.org/2000/svg" viewBox="0 0 7882.23 1152.76">
  <defs>
    <style>
      .cls-1 {
        fill: none;
      }

      .cls-2 {
        fill: #fff;
      }
    </style>
  </defs>
  <g id="Ebene_1-2" data-name="Ebene 1">
    <path class="cls-2" d="m440.54,1080.22H48.14c-9.39,0-17.01-7.61-17.01-17.01V48.14c0-9.39,7.61-17.01,17.01-17.01h184.25c8.08,0,15.04,5.68,16.66,13.59l208.16,1015.08c2.16,10.55-5.89,20.42-16.66,20.42Z"/>
    <rect class="cls-2" x="523.65" y="31.13" width="430.27" height="1049.1" rx="17.01" ry="17.01"/>
    <path class="cls-2" d="m1429.42,1080.22h-392.41c-10.77,0-18.82-9.88-16.66-20.42L1228.51,44.72c1.62-7.91,8.58-13.59,16.66-13.59h184.25c9.39,0,17.01,7.61,17.01,17.01v1015.08c0,9.39-7.61,17.01-17.01,17.01Z"/>
    <path class="cls-2" d="m1918.1,1080.22h-392.41c-9.39,0-17.01-7.61-17.01-17.01V48.14c0-9.39,7.61-17.01,17.01-17.01h184.25c8.08,0,15.04,5.68,16.66,13.59l208.16,1015.08c2.16,10.55-5.89,20.42-16.66,20.42Z"/>
    <rect class="cls-2" x="2001.21" y="31.13" width="430.27" height="1049.1" rx="17.01" ry="17.01"/>
    <path class="cls-2" d="m2901.73,1080.22h-392.41c-9.39,0-17.01-7.61-17.01-17.01V48.14c0-9.39,7.61-17.01,17.01-17.01h184.25c8.08,0,15.04,5.68,16.66,13.59l208.16,1015.08c2.16,10.55-5.89,20.42-16.66,20.42Z"/>
    <path class="cls-2" d="m3395.66,1080.22h-392.41c-9.39,0-17.01-7.61-17.01-17.01V48.14c0-9.39,7.61-17.01,17.01-17.01h184.25c8.08,0,15.04,5.68,16.66,13.59l208.16,1015.08c2.16,10.55-5.89,20.42-16.66,20.42Z"/>
    <path class="cls-2" d="m3892.02,1080.22h-392.41c-10.77,0-18.82-9.88-16.66-20.42l208.16-1015.08c1.62-7.91,8.58-13.59,16.66-13.59h184.25c9.39,0,17.01,7.61,17.01,17.01v1015.08c0,9.39-7.61,17.01-17.01,17.01Z"/>
    <path class="cls-2" d="m4380.7,1080.22h-392.41c-9.39,0-17.01-7.61-17.01-17.01V48.14c0-9.39,7.61-17.01,17.01-17.01h184.25c8.08,0,15.04,5.68,16.66,13.59l208.16,1015.08c2.16,10.55-5.89,20.42-16.66,20.42Z"/>
    <rect class="cls-2" x="7420.84" y="31.13" width="430.27" height="1049.1" rx="17.01" ry="17.01"/>
    <path class="cls-2" d="m5369.58,1080.22h-392.41c-10.77,0-18.82-9.88-16.66-20.42l208.16-1015.08c1.62-7.91,8.58-13.59,16.66-13.59h184.25c9.39,0,17.01,7.61,17.01,17.01v1015.08c0,9.39-7.61,17.01-17.01,17.01Z"/>
    <path class="cls-2" d="m5858.26,1080.22h-392.41c-9.39,0-17.01-7.61-17.01-17.01V48.14c0-9.39,7.61-17.01,17.01-17.01h184.25c8.08,0,15.04,5.68,16.66,13.59l208.16,1015.08c2.16,10.55-5.89,20.42-16.66,20.42Z"/>
    <rect class="cls-2" x="5941.36" y="31.13" width="430.27" height="1049.1" rx="17.01" ry="17.01"/>
    <path class="cls-2" d="m6841.89,1080.22h-392.41c-9.39,0-17.01-7.61-17.01-17.01V48.14c0-9.39,7.61-17.01,17.01-17.01h184.25c8.08,0,15.04,5.68,16.66,13.59l208.16,1015.08c2.16,10.55-5.89,20.42-16.66,20.42Z"/>
    <path class="cls-2" d="m7335.82,1080.22h-392.41c-9.39,0-17.01-7.61-17.01-17.01V48.14c0-9.39,7.61-17.01,17.01-17.01h184.25c8.08,0,15.04,5.68,16.66,13.59l208.16,1015.08c2.16,10.55-5.89,20.42-16.66,20.42Z"/>
    <path class="cls-2" d="m4877.06,1080.22h-392.41c-10.77,0-18.82-9.88-16.66-20.42l208.16-1015.08c1.62-7.91,8.58-13.59,16.66-13.59h184.25c9.39,0,17.01,7.61,17.01,17.01v1015.08c0,9.39-7.61,17.01-17.01,17.01Z"/>
    <rect class="cls-1" width="7882.23" height="1152.76"/>
  </g>
</svg>