<?xml version="1.0" encoding="UTF-8"?>
<svg id="Ebene_2" data-name="Ebene 2" xmlns="http://www.w3.org/2000/svg" viewBox="0 0 15760.63 1152.76">
  <defs>
    <style>
      .cls-1 {
        fill: none;
      }

      .cls-2 {
        fill: #fff;
      }
    </style>
  </defs>
  <g id="Ebene_1-2" data-name="Ebene 1">
    <rect class="cls-2" x="31.13" y="72.53" width="430.27" height="1049.1" rx="17.01" ry="17.01"/>
    <path class="cls-2" d="m936.9,1121.63h-184.25c-8.08,0-15.04-5.68-16.66-13.59L527.84,92.96c-2.16-10.55,5.89-20.42,16.66-20.42h392.41c9.39,0,17.01,7.61,17.01,17.01v1015.08c0,9.39-7.61,17.01-17.01,17.01Z"/>
    <path class="cls-2" d="m1429.42,1121.63h-184.25c-8.08,0-15.04-5.68-16.66-13.59L1020.35,92.96c-2.16-10.55,5.89-20.42,16.66-20.42h392.41c9.39,0,17.01,7.61,17.01,17.01v1015.08c0,9.39-7.61,17.01-17.01,17.01Z"/>
    <path class="cls-2" d="m1709.94,1121.63h-184.25c-9.39,0-17.01-7.61-17.01-17.01V89.54c0-9.39,7.61-17.01,17.01-17.01h392.41c10.77,0,18.82,9.88,16.66,20.42l-208.16,1015.08c-1.62,7.91-8.58,13.59-16.66,13.59Z"/>
    <rect class="cls-2" x="2001.21" y="72.53" width="430.27" height="1049.1" rx="17.01" ry="17.01"/>
    <path class="cls-2" d="m2903.14,1121.63h-392.41c-9.39,0-17.01-7.61-17.01-17.01V89.54c0-9.39,7.61-17.01,17.01-17.01h184.25c8.08,0,15.04,5.68,16.66,13.59l208.16,1015.08c2.16,10.55-5.89,20.42-16.66,20.42Z"/>
    <rect class="cls-2" x="2986.25" y="72.53" width="430.27" height="1049.1" rx="17.01" ry="17.01"/>
    <rect class="cls-2" x="3478.77" y="72.53" width="430.27" height="1049.1" rx="17.01" ry="17.01"/>
    <rect class="cls-2" x="3971.28" y="72.53" width="430.27" height="1049.1" rx="17.01" ry="17.01"/>
    <path class="cls-2" d="m4877.06,1121.63h-184.25c-8.08,0-15.04-5.68-16.66-13.59l-208.16-1015.08c-2.16-10.55,5.89-20.42,16.66-20.42h392.41c9.39,0,17.01,7.61,17.01,17.01v1015.08c0,9.39-7.61,17.01-17.01,17.01Z"/>
    <path class="cls-2" d="m5369.58,1121.63h-184.25c-8.08,0-15.04-5.68-16.66-13.59l-208.16-1015.08c-2.16-10.55,5.89-20.42,16.66-20.42h392.41c9.39,0,17.01,7.61,17.01,17.01v1015.08c0,9.39-7.61,17.01-17.01,17.01Z"/>
    <path class="cls-2" d="m5650.1,1121.63h-184.25c-9.39,0-17.01-7.61-17.01-17.01V89.54c0-9.39,7.61-17.01,17.01-17.01h392.41c10.77,0,18.82,9.88,16.66,20.42l-208.16,1015.08c-1.62,7.91-8.58,13.59-16.66,13.59Z"/>
    <rect class="cls-2" x="5941.36" y="72.53" width="430.27" height="1049.1" rx="17.01" ry="17.01"/>
    <path class="cls-2" d="m6843.3,72.53h-392.41c-9.39,0-17.01,7.61-17.01,17.01v1015.08c0,9.39,7.61,17.01,17.01,17.01h184.25c8.08,0,15.04-5.68,16.66-13.59l208.16-1015.08c2.16-10.55-5.89-20.42-16.66-20.42Z"/>
    <rect class="cls-2" x="6926.4" y="72.53" width="430.27" height="1049.1" rx="17.01" ry="17.01"/>
    <rect class="cls-2" x="7418.92" y="72.53" width="430.27" height="1049.1" rx="17.01" ry="17.01"/>
    <rect class="cls-2" x="7911.44" y="72.53" width="430.27" height="1049.1" rx="17.01" ry="17.01"/>
    <path class="cls-2" d="m8817.22,1121.63h-184.25c-8.08,0-15.04-5.68-16.66-13.59l-208.16-1015.08c-2.16-10.55,5.89-20.42,16.66-20.42h392.41c9.39,0,17.01,7.61,17.01,17.01v1015.08c0,9.39-7.61,17.01-17.01,17.01Z"/>
    <path class="cls-2" d="m10294.78,1121.63h-184.25c-8.08,0-15.04-5.68-16.66-13.59l-208.16-1015.08c-2.16-10.55,5.89-20.42,16.66-20.42h392.41c9.39,0,17.01,7.61,17.01,17.01v1015.08c0,9.39-7.61,17.01-17.01,17.01Z"/>
    <path class="cls-2" d="m9309.74,1121.63h-184.25c-8.08,0-15.04-5.68-16.66-13.59l-208.16-1015.08c-2.16-10.55,5.89-20.42,16.66-20.42h392.41c9.39,0,17.01,7.61,17.01,17.01v1015.08c0,9.39-7.61,17.01-17.01,17.01Z"/>
    <path class="cls-2" d="m9590.26,1121.63h-184.25c-9.39,0-17.01-7.61-17.01-17.01V89.54c0-9.39,7.61-17.01,17.01-17.01h392.41c10.77,0,18.82,9.88,16.66,20.42l-208.16,1015.08c-1.62,7.91-8.58,13.59-16.66,13.59Z"/>
    <rect class="cls-2" x="10866.56" y="72.53" width="430.27" height="1049.1" rx="17.01" ry="17.01"/>
    <rect class="cls-2" x="10374.04" y="72.53" width="430.27" height="1049.1" rx="17.01" ry="17.01"/>
    <rect class="cls-2" x="11359.08" y="72.53" width="430.27" height="1049.1" rx="17.01" ry="17.01"/>
    <rect class="cls-2" x="11851.6" y="72.53" width="430.27" height="1049.1" rx="17.01" ry="17.01"/>
    <path class="cls-2" d="m15710.58,1121.63h-184.25c-8.08,0-15.04-5.68-16.66-13.59l-208.16-1015.08c-2.16-10.55,5.89-20.42,16.66-20.42h392.41c9.39,0,17.01,7.61,17.01,17.01v1015.08c0,9.39-7.61,17.01-17.01,17.01Z"/>
    <path class="cls-2" d="m13249.9,1121.63h-184.25c-8.08,0-15.04-5.68-16.66-13.59l-208.16-1015.08c-2.16-10.55,5.89-20.42,16.66-20.42h392.41c9.39,0,17.01,7.61,17.01,17.01v1015.08c0,9.39-7.61,17.01-17.01,17.01Z"/>
    <path class="cls-2" d="m13530.42,1121.63h-184.25c-9.39,0-17.01-7.61-17.01-17.01V89.54c0-9.39,7.61-17.01,17.01-17.01h392.41c10.77,0,18.82,9.88,16.66,20.42l-208.16,1015.08c-1.62,7.91-8.58,13.59-16.66,13.59Z"/>
    <rect class="cls-2" x="13821.68" y="72.53" width="430.27" height="1049.1" rx="17.01" ry="17.01"/>
    <path class="cls-2" d="m14723.61,1121.63h-392.41c-9.39,0-17.01-7.61-17.01-17.01V89.54c0-9.39,7.61-17.01,17.01-17.01h184.25c8.08,0,15.04,5.68,16.66,13.59l208.16,1015.08c2.16,10.55-5.89,20.42-16.66,20.42Z"/>
    <rect class="cls-2" x="14806.72" y="72.53" width="430.27" height="1049.1" rx="17.01" ry="17.01"/>
    <rect class="cls-2" x="12344.12" y="72.53" width="430.27" height="1049.1" rx="17.01" ry="17.01"/>
    <rect class="cls-1" width="15760.63" height="1152.76"/>
  </g>
</svg>